<svg width="21" height="21" fill="none" xmlns="http://www.w3.org/2000/svg"><path fill-rule="evenodd" clip-rule="evenodd" d="M5.064 2.91C5.034 1.582 4.086.572 2.546.572 1.006.573 0 1.583 0 2.91c0 1.299.977 2.338 2.488 2.338h.029c1.57 0 2.547-1.04 2.547-2.338zM.266 7.092v13.523h4.501V7.093h-4.5zm15.552-.318c2.961 0 5.182 1.933 5.182 6.087v7.754h-4.501V13.38c0-1.817-.651-3.057-2.28-3.057-1.244 0-1.985.836-2.31 1.643-.12.29-.149.693-.149 1.097v7.553h-4.5s.06-12.255 0-13.524h4.501v1.915c.598-.92 1.668-2.233 4.058-2.233z" fill="#72DDFF"/></svg>