<svg width="21" height="18" fill="none" xmlns="http://www.w3.org/2000/svg"><path d="M.317 8.373c2.149-1.225 4.547-2.247 6.787-3.275C10.96 3.416 14.83 1.762 18.74.222c.76-.262 2.127-.518 2.261.648-.073 1.651-.375 3.293-.582 4.935-.526 3.61-1.133 7.207-1.726 10.805-.204 1.199-1.654 1.82-2.582 1.052-2.231-1.559-4.48-3.103-6.681-4.699-.722-.759-.053-1.848.591-2.39 1.838-1.874 3.786-3.466 5.527-5.437.47-1.174-.918-.184-1.375.119-2.516 1.794-4.97 3.697-7.621 5.274-1.355.771-2.934.112-4.288-.319C1.05 9.69-.73 9.166.317 8.373z" fill="#fff"/></svg>